<svg version="1.1" xmlns="http://www.w3.org/2000/svg" x="0" y="0" viewBox="0 0 64.8 48.9" enable-background="new 0 0 64.82 48.92" xml:space="preserve"> 
	<path fill="#E4E4E4" d="M57.5 14.7H45.3v3.7h12.2V14.7zM57.5 22H45.3v3.7h12.2V22zM57.5 7.3H45.3v3.7h12.2V7.3zM15.9 0v14.7H0v24.5c0 5.4 4.4 9.8 9.8 9.8h45.3c5.4 0 9.8-4.4 9.8-9.8V0H15.9zM15.9 22H7.3v3.7h8.6v3.7H7.3v3.7h8.6v6.1c0 3.4-2.7 6.1-6.1 6.1 -3.4 0-6.1-2.7-6.1-6.1V18.3H15.9L15.9 22 15.9 22zM61.2 39.1c0 3.4-2.7 6.1-6.1 6.1H17.4c1.3-1.7 2.2-3.8 2.2-6.1V3.7h41.6V39.1L61.2 39.1zM57.5 29.4H23.2v3.7h34.3V29.4zM41.6 7.3H23.2v18.3h18.3V7.3z"/> 
</svg>